<svg xmlns="http://www.w3.org/2000/svg" version="1.1" xmlns:xlink="http://www.w3.org/1999/xlink" xmlns:svgjs="http://svgjs.dev/svgjs" width="1000" height="1000" viewBox="0 0 1000 1000"><g transform="matrix(1,0,0,1,-0.14221556886212738,-0.14221556886229791)"><svg viewBox="0 0 334 334" data-background-color="#ffffff" preserveAspectRatio="xMidYMid meet" height="1000" width="1000" xmlns="http://www.w3.org/2000/svg" xmlns:xlink="http://www.w3.org/1999/xlink"><g id="tight-bounds" transform="matrix(1,0,0,1,0.04749999999998522,0.04750000000001364)"><svg viewBox="0 0 333.90454557049503 333.90454557049503" height="333.90454557049503" width="333.90454557049503"><g><svg></svg></g><g><svg viewBox="0 0 333.90454557049503 333.90454557049503" height="333.90454557049503" width="333.90454557049503"><g><path d="M0 166.952c0-92.205 74.747-166.952 166.952-166.952 92.205 0 166.952 74.747 166.953 166.952 0 92.205-74.747 166.952-166.953 166.953-92.205 0-166.952-74.747-166.952-166.953zM166.952 316.63c82.665 0 149.677-67.013 149.678-149.678 0-82.665-67.013-149.677-149.678-149.677-82.665 0-149.677 67.013-149.677 149.677 0 82.665 67.013 149.677 149.677 149.678z" data-fill-palette-color="tertiary" fill="#ee3e38" stroke="transparent"></path><ellipse rx="160.27418187383762" ry="160.27418187383762" cx="166.95227278524752" cy="166.95227278524752" fill="#ee3e38" stroke="transparent" stroke-width="0" fill-opacity="1" data-fill-palette-color="tertiary"></ellipse></g><g transform="matrix(1,0,0,1,99.5969840274567,71.17305217166896)"><svg viewBox="0 0 134.71057751558163 191.55844122715712" height="191.55844122715712" width="134.71057751558163"><g><svg viewBox="0 0 134.71057751558163 191.55844122715712" height="191.55844122715712" width="134.71057751558163"><g><svg viewBox="0 0 134.71057751558163 191.55844122715712" height="191.55844122715712" width="134.71057751558163"><g><svg viewBox="0 0 134.71057751558163 191.55844122715712" height="191.55844122715712" width="134.71057751558163"><g id="textblocktransform"><svg viewBox="0 0 134.71057751558163 191.55844122715712" height="191.55844122715712" width="134.71057751558163" id="textblock"><g><svg viewBox="0 0 134.71057751558163 191.55844122715712" height="191.55844122715712" width="134.71057751558163"><g transform="matrix(1,0,0,1,0,0)"><svg width="134.71057751558163" viewBox="2.5 -35.25 25 35.54999923706055" height="191.55844122715712" data-palette-color="#ffffff"><path d="M14.1-35.2Q17.5-35.2 20.58-33.9 23.65-32.6 25.58-30.08 27.5-27.55 27.5-24.15L27.5-24.15Q27.5-21 25.83-18.68 24.15-16.35 21.18-15.1 18.2-13.85 14.4-13.85L14.4-13.85Q9.5-13.85 6.3-15.85L6.3-15.85 6.15-0.7Q6.15 0.3 5.3 0.3L5.3 0.3Q4.85 0.3 4.67 0 4.5-0.3 4.5-1.2L4.5-1.2Q4.5-2.95 4.6-6.55L4.6-6.55Q4.7-11.35 4.7-17L4.7-17Q4.7-22.15 4.5-28.15L4.5-28.15Q4.4-30.05 4.4-30.75L4.4-30.75 3.6-30.3Q3.4-30.2 3.25-30.2L3.25-30.2Q2.9-30.2 2.7-30.5 2.5-30.8 2.5-31.05L2.5-31.05Q2.5-31.4 2.75-31.55L2.75-31.55Q4.1-32.3 4.35-32.4L4.35-32.4 4.35-34.2Q4.35-34.75 4.53-35 4.7-35.25 5.2-35.25L5.2-35.25Q6.05-35.25 6.05-34.45L6.05-34.45 6.05-33.25Q10.2-35.2 14.1-35.2L14.1-35.2ZM13.9-15.4Q17.6-15.4 20.35-16.57 23.1-17.75 24.53-19.75 25.95-21.75 25.95-24.25L25.95-24.25Q25.95-26.95 24.3-29.1 22.65-31.25 19.9-32.45 17.15-33.65 13.95-33.65L13.95-33.65Q11.75-33.65 9.88-33.13 8-32.6 6.05-31.65L6.05-31.65Q6.05-30.4 6.15-28.5L6.15-28.5 6.2-25.2 6.25-20.45Q6.3-19.15 6.3-17.4L6.3-17.4Q8.3-16.25 10.13-15.83 11.95-15.4 13.9-15.4L13.9-15.4Z" opacity="1" transform="matrix(1,0,0,1,0,0)" fill="#ffffff" class="wordmark-text-0" data-fill-palette-color="quaternary" id="text-0"></path></svg></g></svg></g></svg></g></svg></g><g></g></svg></g></svg></g></svg></g></svg></g><defs></defs></svg><rect width="333.90454557049503" height="333.90454557049503" fill="none" stroke="none" visibility="hidden"></rect></g></svg></g></svg>