<svg xmlns="http://www.w3.org/2000/svg" version="1.1" xmlns:xlink="http://www.w3.org/1999/xlink" xmlns:svgjs="http://svgjs.dev/svgjs" width="1000" height="1000" viewBox="0 0 1000 1000"><rect width="1000" height="1000" fill="#ffffff"></rect><g transform="matrix(0.7,0,0,0.7,149.57575757575756,282.1265587044535)"><svg viewBox="0 0 396 247" data-background-color="#ffffff" preserveAspectRatio="xMidYMid meet" height="623" width="1000" xmlns="http://www.w3.org/2000/svg" xmlns:xlink="http://www.w3.org/1999/xlink"><g id="tight-bounds" transform="matrix(1,0,0,1,0.2400000000000091,-0.09999999999999432)"><svg viewBox="0 0 395.52 247.2" height="247.2" width="395.52"><g><svg></svg></g><g><svg viewBox="0 0 395.52 247.2" height="247.2" width="395.52"><g transform="matrix(1,0,0,1,142.2729283018868,47.215199999999996)"><svg viewBox="0 0 110.97414339622641 152.7696" height="152.7696" width="110.97414339622641"><g><svg viewBox="0 0 110.97414339622641 152.7696" height="152.7696" width="110.97414339622641"><g><svg viewBox="0 0 110.97414339622641 152.7696" height="152.7696" width="110.97414339622641"><g><svg viewBox="0 0 110.97414339622641 152.7696" height="152.7696" width="110.97414339622641"><g id="textblocktransform"><svg viewBox="0 0 110.97414339622641 152.7696" height="152.7696" width="110.97414339622641" id="textblock"><g><svg viewBox="0 0 110.97414339622641 152.7696" height="152.7696" width="110.97414339622641"><g transform="matrix(1,0,0,1,0,0)"><svg width="110.97414339622641" viewBox="4.849999904632568 -37.099998474121094 26.94999885559082 37.099998474121094" height="152.7696" data-palette-color="#ee3e38"><path d="M31.8-26.3L31.8-26.3Q31.8-22.6 30.1-20.2 28.4-17.8 25.45-16.65 22.5-15.5 18.6-15.5L18.6-15.5 10.1-15.5Q9.65-15.5 9.65-15.05L9.65-15.05 9.65-0.75Q9.65 0 8.9 0L8.9 0 5.5 0Q5.15 0 5-0.15 4.85-0.3 4.85-0.65L4.85-0.65 4.85-36.4Q4.85-37.1 5.45-37.1L5.45-37.1 18.05-37.1Q22-37.1 25.1-36 28.2-34.9 30-32.5 31.8-30.1 31.8-26.3L31.8-26.3ZM26.9-26.45L26.9-26.45Q26.9-29 25.78-30.55 24.65-32.1 22.63-32.77 20.6-33.45 17.8-33.45L17.8-33.45 10.3-33.45Q9.65-33.45 9.65-32.85L9.65-32.85 9.65-19.85Q9.65-19.15 10.1-19.15L10.1-19.15 18.15-19.15Q22.1-19.15 24.5-20.9 26.9-22.65 26.9-26.45L26.9-26.45Z" opacity="1" transform="matrix(1,0,0,1,0,0)" fill="#000000" class="wordmark-text-0" data-fill-palette-color="primary" id="text-0"></path></svg></g></svg></g></svg></g></svg></g></svg></g></svg></g></svg></g><path d="M70.946 41.215L70.946 0 318.146 0 318.146 247.2 70.946 247.2 70.946 205.985 84.723 205.985 84.723 233.423 304.369 233.423 304.369 13.777 84.723 13.777 84.723 41.215Z" fill="#000000" stroke="transparent" data-fill-palette-color="primary"></path></svg></g><defs></defs></svg><rect width="395.52" height="247.2" fill="none" stroke="none" visibility="hidden"></rect></g></svg></g></svg>