<?xml version="1.0" encoding="iso-8859-1"?>
<!-- Uploaded to: SVG Repo, www.svgrepo.com, Generator: SVG Repo Mixer Tools -->
<svg fill="#000000" height="800px" width="800px" version="1.1" id="Layer_1" xmlns="http://www.w3.org/2000/svg" xmlns:xlink="http://www.w3.org/1999/xlink" 
	 viewBox="0 0 496 496" xml:space="preserve">
<g>
	<g>
		<g>
			<path d="M112,384h272V112H112V384z M128,160h208v-16H128v-16h240v16h-16v16h16v208H128V160z"/>
			<path d="M248,176c-48.52,0-88,39.48-88,88s39.48,88,88,88s88-39.48,88-88C336,215.48,296.52,176,248,176z M223.936,196.224
				c-4.864,6.04-9.864,13.48-14.032,22.432c-5.472-1.64-9.936-3.392-13.336-4.952C204.16,205.952,213.504,199.944,223.936,196.224z
				 M186.552,226.672c4.16,2.104,10.112,4.688,17.736,7.032c-1.984,6.808-3.352,14.248-3.92,22.296h-23.896
				C177.656,245.344,181.216,235.416,186.552,226.672z M176.472,271.992h23.896V272c0.576,8.048,1.944,15.488,3.92,22.288
				c-7.624,2.344-13.576,4.928-17.736,7.032C181.224,292.576,177.664,282.648,176.472,271.992z M196.568,314.288
				c3.392-1.552,7.856-3.312,13.336-4.952c4.168,8.96,9.168,16.4,14.032,22.432C213.504,328.056,204.16,322.048,196.568,314.288z
				 M240,326.064c-4.592-5.064-9.688-11.864-14.024-20.336c4.328-0.696,8.992-1.216,14.024-1.488V326.064z M240,288.192
				c-7.36,0.352-14.056,1.192-20.136,2.304c-1.688-5.664-2.944-11.8-3.504-18.496H240V288.192z M240,256h-23.64
				c0.56-6.696,1.816-12.832,3.504-18.496c6.08,1.112,12.776,1.944,20.136,2.304V256z M240,223.76
				c-5.032-0.272-9.696-0.8-14.024-1.488c4.336-8.472,9.432-15.28,14.024-20.336V223.76z M299.432,213.712
				c-3.392,1.552-7.856,3.312-13.336,4.952c-4.168-8.96-9.168-16.4-14.032-22.432C282.496,199.944,291.84,205.952,299.432,213.712z
				 M256,201.936c4.592,5.064,9.688,11.864,14.024,20.336c-4.328,0.696-8.992,1.216-14.024,1.488V201.936z M256,239.808
				c7.36-0.352,14.056-1.192,20.136-2.304c1.696,5.664,2.952,11.8,3.504,18.496H256V239.808z M256,272h23.64
				c-0.56,6.696-1.816,12.832-3.504,18.496c-6.08-1.112-12.776-1.944-20.136-2.304V272z M256,326.064V304.24
				c5.032,0.272,9.696,0.8,14.024,1.488C265.688,314.2,260.592,321.008,256,326.064z M272.064,331.776
				c4.864-6.04,9.864-13.48,14.032-22.432c5.472,1.64,9.936,3.392,13.336,4.952C291.84,322.048,282.496,328.056,272.064,331.776z
				 M309.448,301.328c-4.16-2.104-10.112-4.688-17.736-7.032c1.984-6.808,3.352-14.248,3.92-22.296h23.896
				C318.344,282.656,314.784,292.584,309.448,301.328z M295.632,256.008V256c-0.576-8.048-1.944-15.488-3.92-22.288
				c7.624-2.344,13.576-4.928,17.736-7.032c5.328,8.744,8.888,18.672,10.08,29.328H295.632z"/>
			<path d="M217.872,42.368C222.208,54.904,234,64,248,64c17.648,0,32-14.352,32-32S265.648,0,248,0
				c-15.72,0-28.768,11.424-31.432,26.392c-87.976,12.44-161.832,77.328-184.92,163.536l15.456,4.144
				C68.456,114.32,136.6,54.232,217.872,42.368z M248,16c8.824,0,16,7.176,16,16s-7.176,16-16,16c-8.824,0-16-7.176-16-16
				S239.176,16,248,16z"/>
			<path d="M42.368,278.128C54.904,273.792,64,262,64,248c0-17.648-14.352-32-32-32S0,230.352,0,248
				c0,15.72,11.424,28.768,26.392,31.432c12.44,87.976,77.328,161.832,163.536,184.92l4.144-15.456
				C114.32,427.544,54.232,359.4,42.368,278.128z M16,248c0-8.824,7.176-16,16-16s16,7.176,16,16c0,8.824-7.176,16-16,16
				S16,256.824,16,248z"/>
			<path d="M278.128,453.632C273.792,441.096,262,432,248,432c-17.648,0-32,14.352-32,32s14.352,32,32,32
				c15.72,0,28.768-11.424,31.432-26.392c87.976-12.44,161.832-77.328,184.92-163.536l-15.456-4.144
				C427.544,381.68,359.4,441.768,278.128,453.632z M248,480c-8.824,0-16-7.176-16-16c0-8.824,7.176-16,16-16
				c8.824,0,16,7.176,16,16C264,472.824,256.824,480,248,480z"/>
			<path d="M469.608,216.568c-12.44-87.976-77.328-161.832-163.536-184.92l-4.144,15.456
				C381.68,68.456,441.76,136.6,453.632,217.872C441.096,222.208,432,234,432,248c0,17.648,14.352,32,32,32s32-14.352,32-32
				C496,232.28,484.576,219.232,469.608,216.568z M464,264c-8.824,0-16-7.176-16-16c0-8.824,7.176-16,16-16c8.824,0,16,7.176,16,16
				C480,256.824,472.824,264,464,264z"/>
		</g>
	</g>
</g>
</svg>